<svg width="1920" height="370" viewBox="0 0 1920 370" fill="none" xmlns="http://www.w3.org/2000/svg" xmlns:xlink="http://www.w3.org/1999/xlink">
<g clip-path="url(#clip0_148_10)">
<path d="M342.64 32.7037L284.003 66.2458C232.77 95.5525 168.836 90.6019 122.726 53.7575C28.4929 -21.5389 -111 45.5548 -111 166.176V256.606C-111 360.101 -27.1008 444 76.394 444H1856.1C1952.69 444 2031 365.693 2031 269.097V189.2C2031 86.3364 1917.72 23.7488 1830.63 78.502C1784.97 107.217 1726.35 104.939 1683.05 72.7665L1646.93 45.9308C1589.84 3.51587 1514.29 -4.74379 1449.38 24.334L1366.9 61.2897C1292.12 94.7908 1205.65 89.3584 1135.65 46.7623L1130.49 43.6249C1053.24 -3.38475 956.58 -4.81802 877.97 39.8807L862.751 48.5349C789.996 89.9047 701.324 91.9563 626.734 53.9954L573.803 27.0578C500.721 -10.1355 413.82 -8.01303 342.64 32.7037Z" fill="url(#pattern0_148_10)"/>
</g>
<defs>
<clipPath id="clip0_148_10">
<rect width="1920" height="370" fill="white"/>
</clipPath>
<pattern id="pattern0_148_10" patternUnits="userSpaceOnUse" patternTransform="matrix(112.5 0 0 223 903.75 155.481)" preserveAspectRatio="none" viewBox="0 0 225 446" width="1" height="1">
<use xlink:href="#pattern0_148_10_inner" transform="translate(-225 0)"/>
<g id="pattern0_148_10_inner">
<rect width="225" height="223" fill="#9C4760"/>
<path d="M166.685 108.896L146.537 154.148C146.065 155.208 145.05 155.927 143.884 156.026L92.5025 160.375C91.394 160.469 90.3113 159.987 89.6394 159.1L58.4899 118.006C57.7837 117.074 57.6384 115.838 58.1108 114.777L78.258 69.5258C78.7304 68.4649 79.746 67.7457 80.9111 67.6471L132.293 63.2982C133.402 63.2043 134.484 63.6864 135.156 64.5729L166.306 105.667C167.012 106.599 167.157 107.835 166.685 108.896Z" stroke="#A24C65" stroke-width="14" stroke-linecap="round" stroke-linejoin="round"/>
<path d="M80.9832 70.3924L111.317 110.411C111.989 111.298 113.072 111.78 114.18 111.686L164.392 107.436" stroke="#A24C65" stroke-width="14" stroke-linecap="round" stroke-linejoin="round"/>
<path d="M92.8879 155.657L112.398 111.836" stroke="#A24C65" stroke-width="14" stroke-linecap="round" stroke-linejoin="round"/>
</g>
<use xlink:href="#pattern0_148_10_inner" transform="translate(-112.5 223)"/>
<use xlink:href="#pattern0_148_10_inner" transform="translate(112.5 223)"/>
</pattern></defs>
</svg>
