<svg width="1920" height="617" viewBox="0 0 1920 617" fill="none" xmlns="http://www.w3.org/2000/svg" xmlns:xlink="http://www.w3.org/1999/xlink">
<g clip-path="url(#clip0_148_6)">
<path d="M263.767 542.555L236.709 551.154C32.9279 615.918 -175 463.824 -175 249.999C-175 75.4775 -33.5224 -66 140.999 -66H1753.89C1942.28 -66 2095 88.9474 2095 277.335C2095 417.504 2007.91 544.441 1876.58 593.409C1809.61 618.377 1736.42 621.321 1667.67 601.815L1474.55 547.023C1393.41 524.003 1307.88 521.104 1225.36 538.579L910.222 605.32C827.973 622.739 742.724 619.916 661.807 597.094L457.184 539.382C393.789 521.501 326.542 522.605 263.767 542.555Z" fill="url(#pattern0_148_6)"/>
</g>
<defs>
<clipPath id="clip0_148_6">
<rect width="1920" height="617" fill="white"/>
</clipPath>
<pattern id="pattern0_148_6" patternUnits="userSpaceOnUse" patternTransform="matrix(185.84 0 0 221.72 -175 -66)" preserveAspectRatio="none" viewBox="0 0 404 482" width="1" height="1">
<g id="pattern0_148_6_inner">
<rect width="404" height="482" fill="#B7637C"/>
<path d="M203.326 203.14L206.032 213.435C208.814 227.745 207.343 243.271 197.25 253.789C182.658 268.994 160.706 278.109 138.101 249.582C99.1033 200.369 62.7107 127.887 68.682 104.193C74.1857 82.3534 131.825 37.2922 171.025 71.8522C178.064 78.0584 181.498 87.2185 183.289 96.4307L184.549 106.54M203.326 203.14C211.09 201.631 216.161 194.113 214.652 186.349L209.966 162.242M203.326 203.14C195.561 204.65 188.044 199.579 186.534 191.814L181.848 167.707M184.549 106.54C176.784 108.049 171.713 115.567 173.223 123.331L173.382 124.151M184.549 106.54C192.313 105.031 199.831 110.101 201.34 117.866L201.499 118.685M171.265 146.492L168.367 131.585C167.699 128.148 169.944 124.819 173.382 124.151M171.265 146.492L212.475 138.482M171.265 146.492L174.414 162.693C175.082 166.13 178.411 168.376 181.848 167.707M212.475 138.482L209.703 124.219C208.966 120.425 205.293 117.948 201.499 118.685M212.475 138.482L215.499 154.038C216.237 157.832 213.759 161.504 209.966 162.242M181.848 167.707L209.966 162.242M201.499 118.685L173.382 124.151" stroke="#B25D76" stroke-width="18"/>
<path d="M352.29 350.255L332.858 410.155C332.402 411.559 331.223 412.605 329.775 412.889L265.953 425.371C264.576 425.64 263.158 425.179 262.202 424.15L217.894 376.479C216.889 375.398 216.549 373.857 217.004 372.452L236.436 312.552C236.892 311.148 238.072 310.101 239.519 309.818L303.341 297.336C304.718 297.067 306.137 297.528 307.092 298.557L351.4 346.228C352.404 347.309 352.745 348.851 352.29 350.255Z" stroke="#B25D76" stroke-width="14" stroke-linecap="round" stroke-linejoin="round"/>
<path d="M239.962 313.276L283.11 359.7C284.066 360.728 285.485 361.19 286.861 360.921L349.229 348.723" stroke="#B25D76" stroke-width="14" stroke-linecap="round" stroke-linejoin="round"/>
<path d="M265.83 419.359L284.647 361.354" stroke="#B25D76" stroke-width="14" stroke-linecap="round" stroke-linejoin="round"/>
</g>
</pattern></defs>
</svg>
