<svg width="75" height="75" viewBox="0 0 75 75" fill="none" xmlns="http://www.w3.org/2000/svg">
<circle cx="37.5" cy="37.5" r="33.5" stroke="white" stroke-width="8"/>
<path d="M30.64 39.6L32.52 24.8H47V28.68H36.12L35.28 34.92C35.9467 34.36 36.72 33.9333 37.6 33.64C38.48 33.3467 39.44 33.2 40.48 33.2C41.7333 33.2 42.8667 33.4133 43.88 33.84C44.8933 34.2667 45.7467 34.8533 46.44 35.6C47.1333 36.3467 47.6667 37.24 48.04 38.28C48.4133 39.32 48.6 40.44 48.6 41.64C48.6 44.3333 47.7333 46.5067 46 48.16C44.2933 49.7867 42.0667 50.6 39.32 50.6C36.6267 50.6 34.4667 49.96 32.84 48.68C31.2133 47.3733 30.2267 45.4533 29.88 42.92H34.48C34.6667 44.1733 35.1733 45.12 36 45.76C36.8533 46.4 37.9067 46.72 39.16 46.72C40.76 46.72 41.9733 46.24 42.8 45.28C43.6533 44.2933 44.08 43.1067 44.08 41.72C44.08 40.3067 43.6667 39.1733 42.84 38.32C42.04 37.44 40.84 37 39.24 37C38.2533 37 37.3333 37.2 36.48 37.6C35.6267 38 34.9867 38.6667 34.56 39.6H30.64Z" fill="white"/>
</svg>
