<svg width="75" height="75" viewBox="0 0 75 75" fill="none" xmlns="http://www.w3.org/2000/svg">
<circle cx="37.5" cy="37.5" r="33.5" stroke="white" stroke-width="8"/>
<path d="M43.88 24.2L45.68 27.84C42.9067 29.0133 40.5467 30.2533 38.6 31.56C36.6533 32.84 35.3067 34.4933 34.56 36.52C35.3333 35.56 36.24 34.84 37.28 34.36C38.3467 33.8533 39.4667 33.6 40.64 33.6C41.7333 33.6 42.76 33.8133 43.72 34.24C44.7067 34.64 45.5467 35.2 46.24 35.92C46.96 36.64 47.52 37.5067 47.92 38.52C48.32 39.5067 48.52 40.5867 48.52 41.76C48.52 43.0667 48.2667 44.2667 47.76 45.36C47.28 46.4533 46.6267 47.3867 45.8 48.16C44.9733 48.9333 43.9867 49.5333 42.84 49.96C41.72 50.3867 40.5333 50.6 39.28 50.6C37.92 50.6 36.6667 50.36 35.52 49.88C34.3733 49.4 33.3733 48.7333 32.52 47.88C31.6933 47 31.04 45.9467 30.56 44.72C30.1067 43.4933 29.88 42.1333 29.88 40.64C29.88 37.4133 31.0267 34.3733 33.32 31.52C35.6133 28.6667 39.1333 26.2267 43.88 24.2ZM39.12 37.2C37.76 37.2 36.6133 37.6133 35.68 38.44C34.7467 39.24 34.28 40.3733 34.28 41.84C34.28 43.3067 34.7333 44.4933 35.64 45.4C36.5733 46.28 37.76 46.72 39.2 46.72C40.6133 46.72 41.7867 46.2933 42.72 45.44C43.6533 44.5867 44.12 43.44 44.12 42C44.12 40.5333 43.64 39.3733 42.68 38.52C41.72 37.64 40.5333 37.2 39.12 37.2Z" fill="white"/>
</svg>
