<svg width="75" height="75" viewBox="0 0 75 75" fill="none" xmlns="http://www.w3.org/2000/svg">
<circle cx="37.5" cy="37.5" r="33.5" stroke="white" stroke-width="8"/>
<path d="M46.92 31.72C46.92 33.72 46.3467 35.36 45.2 36.64C44.08 37.8933 42.8 39 41.36 39.96C39.92 40.92 38.52 41.8533 37.16 42.76C35.8267 43.6667 34.96 44.76 34.56 46.04H47.24V50H29.88V48.72C29.88 46.1067 30.5333 44.0533 31.84 42.56C33.1733 41.0667 34.6133 39.8 36.16 38.76C37.7333 37.6933 39.1733 36.6667 40.48 35.68C41.8133 34.6667 42.48 33.3467 42.48 31.72C42.48 30.7333 42.1733 29.8933 41.56 29.2C40.9467 28.48 39.9733 28.12 38.64 28.12C37.4133 28.12 36.4133 28.4933 35.64 29.24C34.8667 29.9867 34.4667 31.16 34.44 32.76H30.04C30.04 31.32 30.2667 30.0667 30.72 29C31.1733 27.9067 31.7733 27.0133 32.52 26.32C33.2933 25.6 34.2133 25.0667 35.28 24.72C36.3467 24.3733 37.5067 24.2 38.76 24.2C41.08 24.2 43.0133 24.84 44.56 26.12C46.1333 27.3733 46.92 29.24 46.92 31.72Z" fill="white"/>
</svg>
