<svg width="75" height="75" viewBox="0 0 75 75" fill="none" xmlns="http://www.w3.org/2000/svg">
<circle cx="37.5" cy="37.5" r="33.5" stroke="white" stroke-width="8"/>
<path d="M38.08 38.6H35.92V35.2H38.2C40.04 35.2 41.2933 34.8133 41.96 34.04C42.6533 33.2667 43 32.4 43 31.44C43 30.4267 42.68 29.6 42.04 28.96C41.4267 28.2933 40.4667 27.96 39.16 27.96C37.9333 27.96 36.88 28.32 36 29.04C35.1467 29.76 34.7067 31.0133 34.68 32.8H30.32C30.4267 30.1067 31.3067 28 32.96 26.48C34.6133 24.96 36.8 24.2 39.52 24.2C41.7867 24.2 43.68 24.76 45.2 25.88C46.72 26.9733 47.48 28.5733 47.48 30.68C47.48 32.0667 47.0933 33.3067 46.32 34.4C45.5733 35.4933 44.3467 36.2933 42.64 36.8C44.64 37.2267 46.0667 37.9867 46.92 39.08C47.8 40.1467 48.24 41.44 48.24 42.96C48.24 44.1333 48 45.2 47.52 46.16C47.0667 47.12 46.4267 47.9333 45.6 48.6C44.8 49.24 43.84 49.7333 42.72 50.08C41.6267 50.4267 40.44 50.6 39.16 50.6C36.3333 50.6 34.0667 49.8133 32.36 48.24C30.68 46.6667 29.7867 44.5467 29.68 41.88H34.04C34.2 43.6133 34.7333 44.88 35.64 45.68C36.5467 46.4533 37.7333 46.84 39.2 46.84C40.6133 46.84 41.72 46.48 42.52 45.76C43.3467 45.0133 43.76 43.9733 43.76 42.64C43.76 41.4933 43.36 40.5333 42.56 39.76C41.7867 38.9867 40.2933 38.6 38.08 38.6Z" fill="white"/>
</svg>
