<svg width="225" height="223" viewBox="0 0 225 223" fill="none" xmlns="http://www.w3.org/2000/svg">
<rect width="225" height="223" rx="50" fill="#9C4760"/>
<path d="M181.465 108.524L156.201 165.269C155.608 166.599 154.335 167.5 152.874 167.625L88.4425 173.078C87.0526 173.195 85.6948 172.591 84.8524 171.479L45.7918 119.948C44.9063 118.779 44.7241 117.23 45.3164 115.9L70.5804 59.1555C71.1727 57.8251 72.4463 56.9234 73.9073 56.7997L138.339 51.3463C139.729 51.2286 141.087 51.8331 141.929 52.9447L180.99 104.476C181.875 105.644 182.057 107.194 181.465 108.524Z" stroke="white" stroke-width="14" stroke-linecap="round" stroke-linejoin="round"/>
<path d="M73.9976 60.242L112.036 110.424C112.878 111.536 114.236 112.141 115.626 112.023L178.589 106.694" stroke="white" stroke-width="14" stroke-linecap="round" stroke-linejoin="round"/>
<path d="M88.9261 167.161L113.391 112.212" stroke="white" stroke-width="14" stroke-linecap="round" stroke-linejoin="round"/>
</svg>
