<svg width="361" height="58" viewBox="0 0 361 58" fill="none" xmlns="http://www.w3.org/2000/svg">
<path d="M23.904 41L21.216 33.704H8.88L6.24 41H0.624L12.24 10.76H17.952L29.664 41H23.904ZM10.56 29.144H19.536L15.024 16.856L10.56 29.144ZM239.888 41V28.616L229.28 10.76H235.376L242.624 23.432L250.016 10.76H255.824L245.216 28.568V41H239.888ZM277.75 19.88H272.422C272.39 18.024 271.894 16.68 270.934 15.848C270.006 15.016 268.806 14.6 267.334 14.6C265.862 14.6 264.71 14.92 263.878 15.56C263.046 16.2 262.63 17.064 262.63 18.152C262.63 19.784 263.446 20.952 265.078 21.656C266.742 22.36 268.55 23.064 270.502 23.768C272.486 24.472 274.294 25.432 275.926 26.648C277.59 27.832 278.422 29.768 278.422 32.456C278.422 35.272 277.446 37.528 275.494 39.224C273.542 40.888 271.014 41.72 267.91 41.72C266.31 41.72 264.806 41.48 263.398 41C262.022 40.552 260.822 39.896 259.798 39.032C258.806 38.168 258.006 37.112 257.398 35.864C256.79 34.584 256.454 33.144 256.39 31.544H261.862C261.99 33.4 262.582 34.808 263.638 35.768C264.726 36.728 266.134 37.208 267.862 37.208C269.462 37.208 270.742 36.84 271.702 36.104C272.694 35.368 273.19 34.36 273.19 33.08C273.19 31.384 272.358 30.168 270.694 29.432C269.062 28.696 267.254 27.96 265.27 27.224C263.318 26.488 261.51 25.512 259.846 24.296C258.214 23.08 257.398 21.176 257.398 18.584C257.398 15.992 258.31 13.928 260.134 12.392C261.99 10.824 264.422 10.04 267.43 10.04C270.406 10.04 272.854 10.872 274.774 12.536C276.726 14.168 277.718 16.616 277.75 19.88ZM285.238 10.76L291.718 35.48L298.246 10.76H304.054L310.582 35.576L317.014 10.76H322.678L314.134 41H307.222L301.126 18.728L295.078 41H288.118L279.622 10.76H285.238ZM345.062 19.88H339.734C339.702 18.024 339.206 16.68 338.246 15.848C337.318 15.016 336.118 14.6 334.646 14.6C333.174 14.6 332.022 14.92 331.19 15.56C330.358 16.2 329.942 17.064 329.942 18.152C329.942 19.784 330.758 20.952 332.39 21.656C334.054 22.36 335.862 23.064 337.814 23.768C339.798 24.472 341.606 25.432 343.238 26.648C344.902 27.832 345.734 29.768 345.734 32.456C345.734 35.272 344.758 37.528 342.806 39.224C340.854 40.888 338.326 41.72 335.222 41.72C333.622 41.72 332.118 41.48 330.71 41C329.334 40.552 328.134 39.896 327.11 39.032C326.118 38.168 325.318 37.112 324.71 35.864C324.102 34.584 323.766 33.144 323.702 31.544H329.174C329.302 33.4 329.894 34.808 330.95 35.768C332.038 36.728 333.446 37.208 335.174 37.208C336.774 37.208 338.054 36.84 339.014 36.104C340.006 35.368 340.502 34.36 340.502 33.08C340.502 31.384 339.67 30.168 338.006 29.432C336.374 28.696 334.566 27.96 332.582 27.224C330.63 26.488 328.822 25.512 327.158 24.296C325.526 23.08 324.71 21.176 324.71 18.584C324.71 15.992 325.622 13.928 327.446 12.392C329.302 10.824 331.734 10.04 334.742 10.04C337.718 10.04 340.166 10.872 342.086 12.536C344.038 14.168 345.03 16.616 345.062 19.88Z" fill="white"/>
<g clip-path="url(#clip0_117_36)">
<path d="M89.0826 0.0290275C77.9935 -0.350954 72.7569 3.1491 72.1488 3.58569C72.1052 3.61696 72.0773 3.6572 72.0563 3.70821L64.4892 22.0333L60.5965 36.4927C60.5363 36.7161 60.7195 36.9291 60.9364 36.891C70.9909 35.1251 78.8997 36.736 95.3326 41.5374C112.021 46.4135 126.154 52.8612 152.251 52.8612C176.445 52.8612 207.26 22.9868 211.627 18.6287C211.823 18.4329 211.669 18.1084 211.4 18.1122C204.899 18.2034 199.093 18.1329 197.429 18.1085C197.208 18.1053 197.07 17.8581 197.171 17.6504L203.573 4.46916C203.686 4.23562 203.332 3.88027 203.121 4.0185C196.752 8.18983 161.306 29.0537 126.154 11.2248C109.873 2.96711 97.7075 0.324568 89.0826 0.0290275ZM82.5277 8.19821C83.8287 8.2715 85.2388 9.9323 85.3826 14.1781C85.36 15.2692 84.8456 16.4354 85.0095 16.8876C85.0595 17.0657 89.2578 18.7063 89.2578 18.7063C89.2578 18.7063 90.7513 15.0295 91.671 13.3507C93.3913 8.79023 97.1938 11.3669 96.0828 14.1892C95.3458 18.5995 92.6739 26.9399 92.1005 28.9373C90.8122 32.8213 86.1542 33.4526 87.7521 28.1948C88.1708 26.1678 88.5803 23.7177 88.5803 23.7177L83.4939 21.6553C83.4939 21.6553 82.5058 23.7425 81.5452 25.6663C79.9246 29.1503 74.2647 30.5186 77.5833 22.133C79.181 16.8753 79.9415 12.8064 80.3375 10.438C80.5704 9.04438 81.5158 8.1412 82.5277 8.19821ZM106.423 13.2411C106.495 13.2439 106.565 13.2499 106.634 13.2577C107.111 13.2994 107.759 14.3249 108.255 15.3103C109.879 21.7999 106.969 33.7357 106.455 34.5373C104.684 37.5628 101.577 36.9907 102.757 33.7222C103.308 31.7366 103.899 29.9316 103.899 29.9316L99.8771 29.4563C96.7168 35.9504 93.8755 33.2314 95.513 30.426C97.2647 27.1394 100.996 19.9442 102.748 16.3163C103.961 13.7607 105.344 13.1989 106.423 13.2411ZM119.527 18.2845C122.785 18.1928 123.714 21.3932 123.222 22.8595C122.94 23.722 121.833 24.7016 120.255 22.5683C117.625 21.1746 115.976 26.8701 115.226 29.7383C114.908 31.4437 114.647 34.6149 116.112 35.8641C116.976 36.6096 118.046 36.4729 118.835 36.5154C119.454 36.5977 120.695 39.1512 117.072 40.3036C116.452 40.221 113.26 40.2106 111.944 36.9544C110.496 33.5772 111.414 28.6221 111.414 28.6221C111.414 28.6221 113.324 18.3907 118.844 18.3486C119.082 18.3117 119.31 18.2907 119.527 18.2845ZM184.659 18.5979C185.104 18.6003 185.518 18.6748 185.905 18.8226C186.811 19.4114 187.396 21.0294 187.152 22.4224C186.87 23.6335 186.399 24.6221 186.399 24.6221C187.965 24.7891 189.112 26.4424 189.41 28.6067C189.708 30.771 187.78 32.8079 184.196 34.0688C182.988 34.4285 181.706 34.4246 181.649 33.9802C181.61 33.1111 178.567 22.7579 178.567 22.7579C178.472 22.1312 178.151 21.4439 179.736 20.4997C181.716 19.2333 183.325 18.5906 184.659 18.5979ZM105.451 18.7198C105.391 18.7085 105.323 18.7253 105.246 18.774L101.418 24.6634L105.383 25.3794C105.383 25.3794 106.351 18.8892 105.451 18.7198ZM128.126 21.4349C129.292 21.4154 130.691 23.0352 130.499 25.0272C130.575 27.7662 129.811 31.3821 129.811 31.3821C129.811 31.3821 130.184 30.4635 133.398 27.5952C136.612 24.7272 137.361 25.9496 136.951 27.7072C136.559 29.3854 132.448 33.7093 132.448 33.7093C133.028 33.951 133.627 35.8124 133.627 35.8124C134.544 38.354 135.032 40.3548 135.163 41.8347C135.11 46.1523 131.426 44.9009 131.144 42.701C130.881 40.4213 129.738 35.1 129.738 35.1L128.43 35.2558C128.43 35.2558 127.627 38.0115 126.898 39.0889C123.891 43.7967 121.16 42.2088 122.505 39.5143C122.673 39.1348 124.093 36.4613 124.671 35.0034C127.099 29.0346 125.882 25.7321 126.852 22.5966C127.115 21.7916 127.596 21.4437 128.126 21.4349ZM183.703 21.4349C182.888 21.4802 181.818 21.9806 180.831 22.3411L182.154 25.6183C182.154 25.6183 185.361 24.2548 184.982 22.4353C184.817 21.6394 184.337 21.3996 183.703 21.4349ZM174.22 22.6957C174.914 22.6905 175.762 23.5392 176.278 25.034C177.043 27.9953 177.84 32.7792 177.44 34.4801C177.059 36.0997 176.66 38.1454 174.675 38.6456C174.16 38.7657 169.865 39.4196 168.355 34.4499C166.901 29.2372 166.443 27.7367 166.27 26.0542C166.097 24.3716 167.719 23.3432 168.675 25.1498C169.4 26.5502 170.243 32.6326 171.428 35.1899C172.078 36.2254 173.414 36.4121 174.044 35.462C174.787 34.0256 174.251 30.4373 173.791 27.5582C173.466 26.1791 173.091 25.125 173.11 24.3549C173.234 23.2205 173.681 22.6998 174.22 22.6957ZM158.065 25.8485C158.699 25.8784 159.397 26.7804 159.772 29.2199C160.758 32.5826 160.507 39.0846 160.981 39.6867C161.454 40.2888 164.976 39.4487 165.93 39.1092C166.884 38.7697 168.642 39.2154 168.245 40.226C167.923 41.2571 167.014 41.3548 166.824 41.4758C166.635 41.5965 158.672 44.0934 158.377 42.4313C158.081 40.7688 158.062 40.0039 157.764 37.173C157.466 34.3417 156.742 30.4646 156.721 28.1369C156.711 26.9005 157.347 25.8146 158.065 25.8485ZM150.381 26.7936C151.502 26.8088 152.497 27.5025 153.337 28.7581C154.094 30.3547 153.68 32.1519 151.562 30.5306C151.43 30.4076 150.655 29.9346 149.899 30.4223C149.71 30.5443 149.352 30.7069 148.974 31.2983C147.709 33.2965 148.088 36.8737 148.789 38.7152C149.849 41.4365 151.115 42.2176 152.797 41.5491C154.478 40.8802 154.554 41.2476 154.856 41.3305C155.234 41.4342 156.199 44.5641 152.099 45.2658C147.998 45.9672 145.597 42.4442 145.405 36.3129C145.308 32.2053 146.176 29.4907 147.555 28.0446C148.563 27.1807 149.51 26.7818 150.381 26.7936ZM185.465 26.9949C184.133 27.0297 182.608 28.1449 182.608 28.1449C182.608 28.1449 183.515 32.1679 183.478 31.986C183.458 31.7235 188.153 30.7342 187.152 28.1449C186.808 27.255 186.163 26.9766 185.465 26.9949Z" fill="white"/>
<path d="M72.1699 2.19578C72.1699 2.19578 72.4788 1.81986 73.0626 1.89819C73.6465 1.97652 73.5024 2.68909 73.2825 3.15336C73.0627 3.61764 67.5237 15.631 63.515 29.1816C59.5064 42.7324 59.8129 57.2119 59.8129 58H55.403C55.3428 56.5815 56.1783 42.9486 60.5917 29.1816C65.005 15.4145 71.585 2.67426 72.1699 2.19578Z" fill="white"/>
</g>
<defs>
<clipPath id="clip0_117_36">
<rect width="156.75" height="58" fill="white" transform="translate(55.4)"/>
</clipPath>
</defs>
</svg>
